<svg width="121" height="126" viewBox="0 0 121 126" fill="none" xmlns="http://www.w3.org/2000/svg">
<g filter="url(#filter0_d_26_2665)">
<rect width="121" height="121" rx="18.6838" transform="matrix(1 0 0 -1 0 121.371)" fill="#006969"/>
<path d="M58.9427 76.9335L75.3578 60.5184C76.3587 59.5175 77.5598 58.9169 78.9611 58.9169C80.3624 58.9169 81.5635 59.5175 82.5644 60.5184L82.9648 60.9188V44.7039C82.9648 42.5018 81.1631 40.7002 78.9611 40.7002H42.928C40.726 40.7002 38.9243 42.5018 38.9243 44.7039V76.7333C38.9243 78.9353 40.726 80.737 42.928 80.737H58.9427V76.9335ZM42.928 44.7039H78.9611V50.7094H42.928V44.7039ZM78.9611 62.9206C78.7609 62.9206 78.3605 63.1208 78.1604 63.321L76.1585 65.3228L80.3624 69.5267L82.3642 67.5248C82.7646 67.1245 82.7646 66.3237 82.3642 65.9234L79.7618 63.321C79.5616 63.1208 79.3615 62.9206 78.9611 62.9206ZM75.1576 66.5239L62.9464 78.5349V82.7388H67.1502L79.3615 70.5276L75.1576 66.5239Z" fill="white"/>
</g>
<defs>
<filter id="filter0_d_26_2665" x="0" y="0.371094" width="121" height="125" filterUnits="userSpaceOnUse" color-interpolation-filters="sRGB">
<feFlood flood-opacity="0" result="BackgroundImageFix"/>
<feColorMatrix in="SourceAlpha" type="matrix" values="0 0 0 0 0 0 0 0 0 0 0 0 0 0 0 0 0 0 127 0" result="hardAlpha"/>
<feOffset dy="4"/>
<feComposite in2="hardAlpha" operator="out"/>
<feColorMatrix type="matrix" values="0 0 0 0 0 0 0 0 0 0.340387 0 0 0 0 0.389014 0 0 0 1 0"/>
<feBlend mode="normal" in2="BackgroundImageFix" result="effect1_dropShadow_26_2665"/>
<feBlend mode="normal" in="SourceGraphic" in2="effect1_dropShadow_26_2665" result="shape"/>
</filter>
</defs>
</svg>
