<svg width="26" height="25" viewBox="0 0 26 25" fill="none" xmlns="http://www.w3.org/2000/svg">
<path d="M3.00586 11.4206H23.4013V20.5986C23.4013 20.8691 23.2939 21.1285 23.1027 21.3197C22.9114 21.5109 22.652 21.6184 22.3816 21.6184H4.02563C3.75517 21.6184 3.49579 21.5109 3.30454 21.3197C3.1133 21.1285 3.00586 20.8691 3.00586 20.5986V11.4206ZM18.3025 3.26245H22.3816C22.652 3.26245 22.9114 3.36989 23.1027 3.56113C23.2939 3.75238 23.4013 4.01176 23.4013 4.28222V9.38109H3.00586V4.28222C3.00586 4.01176 3.1133 3.75238 3.30454 3.56113C3.49579 3.36989 3.75517 3.26245 4.02563 3.26245H8.10473V1.2229H10.1443V3.26245H16.2629V1.2229H18.3025V3.26245Z" fill="white"/>
</svg>
