<svg width="121" height="126" viewBox="0 0 121 126" fill="none" xmlns="http://www.w3.org/2000/svg">
<g filter="url(#filter0_d_26_3060)">
<rect width="121" height="121" rx="18.6838" transform="matrix(1 0 0 -1 0 121.571)" fill="#006969"/>
<path d="M66.7983 49.5726C66.5918 49.8152 66.3502 50.0258 66.0816 50.1971L61.7837 48.1513C62.4364 47.9737 63.1091 47.8795 63.7855 47.871C64.6223 47.8149 65.465 47.9251 66.2598 48.1973C66.8603 48.4475 67.2487 48.972 66.7983 49.5726ZM55.7862 46.2695L59.5536 48.0552C58.7742 48.3034 57.9748 48.4542 57.1554 48.5076C56.4808 48.5076 55.3938 48.3074 55.0535 47.6328C54.7972 47.1003 55.2897 46.6138 55.7862 46.2695Z" fill="white"/>
<path fill-rule="evenodd" clip-rule="evenodd" d="M56.3802 41.9085L45.6504 46.807C45.3697 46.9329 45.1309 47.1364 44.962 47.3935C44.7932 47.6506 44.7013 47.9506 44.6973 48.2582C44.6933 48.5658 44.7774 48.8681 44.9395 49.1295C45.1016 49.3909 45.335 49.6006 45.6123 49.7337L56.168 54.8144C57.6905 55.5453 59.3584 55.9227 61.0472 55.9186C62.7361 55.9144 64.4021 55.5287 65.921 54.7903L76.2905 49.7257C76.5677 49.5939 76.8013 49.3853 76.9634 49.1247C77.1256 48.8641 77.2096 48.5624 77.2054 48.2555C77.2012 47.9486 77.1089 47.6493 76.9397 47.3933C76.7704 47.1372 76.5312 46.9351 76.2505 46.811L65.7208 41.9345C64.2571 41.2592 62.6651 40.9075 61.0531 40.9034C59.4412 40.8992 57.8473 41.2407 56.3802 41.9085ZM67.4984 51.8256L66.2873 51.2531C64.6979 51.9497 62.654 52.1399 61.3188 52.1639L60.8183 51.3252L61.1426 51.3152C62.4698 51.2751 63.9251 51.2351 65.1523 50.7146L60.6041 48.5546C59.2889 48.991 57.9497 49.3513 56.5564 49.2733C55.5955 49.1972 54.2062 48.8489 53.6817 47.934C53.3674 47.3735 53.6317 46.847 54.0561 46.4086C54.2822 46.1823 54.5303 45.9791 54.7968 45.8021L53.4435 45.1595L54.4444 44.659L55.7677 45.2896C57.1329 44.7291 58.7104 44.659 60.1597 44.659L60.2458 45.3196H60.1116C59.3109 45.3196 57.7795 45.3156 56.7205 45.742L60.7402 47.6558C61.6565 47.3911 62.5965 47.2168 63.5468 47.1353C64.86 47.0352 66.1992 47.1353 67.2102 47.5857C68.0629 47.9601 68.7756 48.8109 68.2111 49.7477C67.9517 50.1419 67.6153 50.4796 67.2222 50.7406L68.4493 51.3232L67.4984 51.8256ZM40.936 68.8312V54.1117C40.936 52.3241 42.8118 51.135 44.4633 51.8857L55.3293 56.8642C56.6283 57.455 57.7303 58.4067 58.504 59.6059C59.2777 60.8051 59.6905 62.2013 59.6933 63.6285V78.4341C59.6933 80.2357 57.8055 81.4228 56.156 80.6601L45.276 75.5834C43.9833 74.99 42.8875 74.0387 42.1184 72.8421C41.3493 71.6455 40.939 70.2537 40.936 68.8312ZM53.968 74.2462C53.4675 74.5585 52.9671 74.6706 52.2404 74.6706C50.0784 74.6706 47.7643 72.7208 46.6393 69.9943C46.2044 68.895 45.9431 67.7347 45.8646 66.5551L44.6875 66.0547L45.288 64.8656L45.8145 65.0918C45.8265 64.4912 45.8746 63.8787 45.9386 63.2781L44.6875 62.7396L45.288 61.5646L46.1508 61.9409L46.1768 61.7647C46.5892 59.6888 47.4901 58.4137 49.4278 58.4137C50.9652 58.4137 52.6308 59.5387 53.918 61.2403C53.7645 61.8113 53.5328 62.3583 53.2293 62.8658C52.4546 61.2403 51.2775 60.1152 49.9263 60.1152C48.477 60.1152 47.7643 61.002 47.414 62.4774L52.5787 64.6914L51.9782 65.8785L47.1758 63.8166C47.1017 64.4032 47.0517 65.0177 47.0517 65.6303L51.4917 67.5421L50.8912 68.7171L47.1517 67.1057C47.2518 67.8543 47.426 68.607 47.7143 69.2816C48.5891 71.4436 50.3407 73.0191 52.0542 73.0191C52.5667 73.0191 52.9671 72.919 53.2674 72.7448C53.4535 73.0571 53.7038 73.5696 53.968 74.2462ZM77.4255 51.9237C79.0771 51.173 80.9528 52.3621 80.9528 54.1618V68.8813C80.9498 70.3037 80.5395 71.6956 79.7704 72.8922C79.0013 74.0887 77.9055 75.04 76.6128 75.6335L65.7328 80.6981C65.3562 80.8767 64.9407 80.9573 64.5247 80.9326C64.1087 80.9078 63.7056 80.7785 63.3529 80.5565C63.0002 80.3345 62.7092 80.0271 62.5069 79.6627C62.3046 79.2984 62.1975 78.8888 62.1956 78.4721V63.6665C62.201 62.2418 62.6151 60.8485 63.3886 59.652C64.1621 58.4556 65.2626 57.5061 66.5596 56.9163L77.4255 51.9237ZM73.9984 58.4757L75.4257 57.9893L72.1987 66.9675V67.7562L74.701 66.5051V67.7562L72.1987 69.0054V70.5949L74.701 69.3557V70.6069L72.1987 71.858V73.996L70.9476 74.6706V72.4686L68.4453 73.7197V72.4706L70.9476 71.2194V69.618L68.4453 70.8691V69.618L70.9476 68.3808V67.7562L67.3103 61.7407L68.6875 60.94L71.4621 65.6924L73.9984 58.4757Z" fill="white"/>
</g>
<defs>
<filter id="filter0_d_26_3060" x="0" y="0.571289" width="121" height="125" filterUnits="userSpaceOnUse" color-interpolation-filters="sRGB">
<feFlood flood-opacity="0" result="BackgroundImageFix"/>
<feColorMatrix in="SourceAlpha" type="matrix" values="0 0 0 0 0 0 0 0 0 0 0 0 0 0 0 0 0 0 127 0" result="hardAlpha"/>
<feOffset dy="4"/>
<feComposite in2="hardAlpha" operator="out"/>
<feColorMatrix type="matrix" values="0 0 0 0 0 0 0 0 0 0.340387 0 0 0 0 0.389014 0 0 0 1 0"/>
<feBlend mode="normal" in2="BackgroundImageFix" result="effect1_dropShadow_26_3060"/>
<feBlend mode="normal" in="SourceGraphic" in2="effect1_dropShadow_26_3060" result="shape"/>
</filter>
</defs>
</svg>
