<svg width="109" height="109" viewBox="0 0 109 109" fill="none" xmlns="http://www.w3.org/2000/svg">
<rect x="2.42896" y="2.91309" width="103.737" height="103.737" rx="51.8683" fill="#006969"/>
<rect x="2.42896" y="2.91309" width="103.737" height="103.737" rx="51.8683" stroke="#008EA3" stroke-width="4"/>
<g clip-path="url(#clip0_778_62)">
<path d="M67.6956 56.9131V62.9131L61.6956 56.9131H49.6956C48.6347 56.9131 47.6173 56.4917 46.8671 55.7415C46.117 54.9914 45.6956 53.974 45.6956 52.9131V38.9131C45.6956 36.7131 47.4956 34.9131 49.6956 34.9131H69.6956C70.7564 34.9131 71.7738 35.3345 72.524 36.0847C73.2741 36.8348 73.6956 37.8522 73.6956 38.9131V52.9131C73.6956 53.974 73.2741 54.9914 72.524 55.7415C71.7738 56.4917 70.7564 56.9131 69.6956 56.9131H67.6956ZM61.6956 60.9131V64.9131C61.6956 65.974 61.2741 66.9914 60.524 67.7415C59.7738 68.4917 58.7564 68.9131 57.6956 68.9131H45.6956L39.6956 74.9131V68.9131H37.6956C36.6347 68.9131 35.6173 68.4917 34.8671 67.7415C34.117 66.9914 33.6956 65.974 33.6956 64.9131V50.9131C33.6956 48.7131 35.4956 46.9131 37.6956 46.9131H41.6956V52.9131C41.6956 55.0348 42.5384 57.0696 44.0387 58.5699C45.539 60.0702 47.5738 60.9131 49.6956 60.9131H61.6956Z" fill="white"/>
</g>
<defs>
<clipPath id="clip0_778_62">
<rect width="40" height="40" fill="white" transform="translate(33.6956 34.9131)"/>
</clipPath>
</defs>
</svg>
