<svg width="111" height="111" viewBox="0 0 111 111" fill="none" xmlns="http://www.w3.org/2000/svg">
<path d="M55.0718 65.1965C49.9178 65.1965 45.451 61.0733 45.451 55.5757C45.451 50.4217 49.5742 45.9549 55.0718 45.9549C60.2258 45.9549 64.6926 50.0781 64.6926 55.5757C64.6926 60.7297 60.2258 65.1965 55.0718 65.1965Z" fill="#006969"/>
<path fill-rule="evenodd" clip-rule="evenodd" d="M66.7542 32.2108H43.3894C40.6406 32.5544 39.2662 32.898 38.2354 33.2416C36.861 33.5852 35.8302 34.2724 34.7994 35.3032C33.9837 36.1189 33.5983 36.9346 33.1325 37.9205C33.0097 38.1803 32.881 38.4527 32.7377 38.7393C32.6846 38.8987 32.6232 39.0664 32.5574 39.2461C32.198 40.2282 31.7069 41.5697 31.7069 43.8933V67.2581C32.0505 70.0069 32.3941 71.3813 32.7377 72.4121C33.0813 73.7865 33.7686 74.8173 34.7994 75.8481C35.615 76.6638 36.4307 77.0491 37.4166 77.515C37.6766 77.6378 37.9485 77.7663 38.2354 77.9097C38.3948 77.9629 38.5625 78.0242 38.7422 78.09C39.7243 78.4495 41.0658 78.9405 43.3894 78.9405H66.7542C69.503 78.5969 70.8774 78.2533 71.9082 77.9097C73.2826 77.5661 74.3134 76.8789 75.3442 75.8481C76.1599 75.0324 76.5452 74.2168 77.011 73.2309C77.1339 72.9709 77.2624 72.6989 77.4058 72.4121C77.459 72.2526 77.5203 72.0849 77.5861 71.9052C77.9456 70.9232 78.4366 69.5816 78.4366 67.2581V43.8933C78.093 41.1445 77.7494 39.7701 77.4058 38.7393C77.0622 37.3649 76.375 36.334 75.3442 35.3032C74.5285 34.4876 73.7129 34.1022 72.727 33.6364C72.4673 33.5137 72.1946 33.3848 71.9082 33.2416C71.7487 33.1885 71.581 33.1271 71.4013 33.0613C70.4193 32.7019 69.0778 32.2108 66.7542 32.2108ZM55.0718 40.8009C46.8254 40.8009 40.297 47.3293 40.297 55.5757C40.297 63.8221 46.8254 70.3505 55.0718 70.3505C63.3182 70.3505 69.8466 63.8221 69.8466 55.5757C69.8466 47.3293 63.3182 40.8009 55.0718 40.8009ZM73.6262 40.4573C73.6262 42.3549 72.0878 43.8933 70.1902 43.8933C68.2925 43.8933 66.7542 42.3549 66.7542 40.4573C66.7542 38.5596 68.2925 37.0213 70.1902 37.0213C72.0878 37.0213 73.6262 38.5596 73.6262 40.4573Z" fill="#006969"/>
<path fill-rule="evenodd" clip-rule="evenodd" d="M0.0957031 55.5757C0.0957031 25.2132 24.7093 0.599609 55.0718 0.599609C85.4342 0.599609 110.048 25.2132 110.048 55.5757C110.048 85.9381 85.4342 110.552 55.0718 110.552C24.7093 110.552 0.0957031 85.9381 0.0957031 55.5757ZM43.3894 27.0568H66.7542C69.8466 27.4004 71.9082 27.744 73.6262 28.4312C75.6878 29.462 77.0622 30.1492 78.7802 31.8672C80.4982 33.5852 81.529 35.3032 82.2162 37.0213C82.9034 38.7393 83.5906 40.8009 83.5906 43.8933V67.2581C83.247 70.3505 82.9034 72.4121 82.2162 74.1301C81.1854 76.1917 80.4982 77.5661 78.7802 79.2841C77.0622 81.0021 75.3442 82.0329 73.6262 82.7201C71.9082 83.4073 69.8466 84.0945 66.7542 84.0945H43.3894C40.297 83.7509 38.2354 83.4073 36.5174 82.7201C34.4557 81.6893 33.0813 81.0021 31.3633 79.2841C29.6453 77.5661 28.6145 75.8481 27.9273 74.1301C27.2401 72.4121 26.5529 70.3505 26.5529 67.2581V43.8933C26.8965 40.8009 27.2401 38.7393 27.9273 37.0213C28.9581 34.9596 29.6453 33.5852 31.3633 31.8672C33.0813 30.1492 34.7994 29.1184 36.5174 28.4312C38.2354 27.744 40.297 27.0568 43.3894 27.0568Z" fill="#006969"/>
</svg>
