<svg width="121" height="126" viewBox="0 0 121 126" fill="none" xmlns="http://www.w3.org/2000/svg">
<g filter="url(#filter0_d_26_3066)">
<rect width="121" height="121" rx="18.6838" transform="matrix(1 0 0 -1 0 121.571)" fill="#006969"/>
<path d="M68.9519 48.9082H57.9418V56.9156H38.9243V66.9247H42.928C42.928 68.5175 43.5607 70.045 44.687 71.1713C45.8132 72.2975 47.3407 72.9303 48.9335 72.9303C50.5263 72.9303 52.0538 72.2975 53.18 71.1713C54.3063 70.045 54.939 68.5175 54.939 66.9247H66.9501C66.9501 68.5175 67.5828 70.045 68.709 71.1713C69.8353 72.2975 71.3628 72.9303 72.9556 72.9303C74.5483 72.9303 76.0759 72.2975 77.2021 71.1713C78.3284 70.045 78.9611 68.5175 78.9611 66.9247H82.9648V60.9192C82.9648 58.6972 81.1831 56.9156 78.9611 56.9156H74.9574L68.9519 48.9082ZM60.9445 51.911H67.951L71.8746 56.9156H60.9445V51.911ZM48.9335 63.922C49.7299 63.922 50.4937 64.2384 51.0568 64.8015C51.6199 65.3646 51.9363 66.1284 51.9363 66.9247C51.9363 67.7211 51.6199 68.4849 51.0568 69.048C50.4937 69.6111 49.7299 69.9275 48.9335 69.9275C48.1371 69.9275 47.3734 69.6111 46.8102 69.048C46.2471 68.4849 45.9308 67.7211 45.9308 66.9247C45.9308 66.1284 46.2471 65.3646 46.8102 64.8015C47.3734 64.2384 48.1371 63.922 48.9335 63.922ZM72.9556 63.922C73.7519 63.922 74.5157 64.2384 75.0788 64.8015C75.642 65.3646 75.9583 66.1284 75.9583 66.9247C75.9583 67.7211 75.642 68.4849 75.0788 69.048C74.5157 69.6111 73.7519 69.9275 72.9556 69.9275C72.1592 69.9275 71.3954 69.6111 70.8323 69.048C70.2692 68.4849 69.9528 67.7211 69.9528 66.9247C69.9528 66.1284 70.2692 65.3646 70.8323 64.8015C71.3954 64.2384 72.1592 63.922 72.9556 63.922Z" fill="white"/>
</g>
<defs>
<filter id="filter0_d_26_3066" x="0" y="0.571289" width="121" height="125" filterUnits="userSpaceOnUse" color-interpolation-filters="sRGB">
<feFlood flood-opacity="0" result="BackgroundImageFix"/>
<feColorMatrix in="SourceAlpha" type="matrix" values="0 0 0 0 0 0 0 0 0 0 0 0 0 0 0 0 0 0 127 0" result="hardAlpha"/>
<feOffset dy="4"/>
<feComposite in2="hardAlpha" operator="out"/>
<feColorMatrix type="matrix" values="0 0 0 0 0 0 0 0 0 0.340387 0 0 0 0 0.389014 0 0 0 1 0"/>
<feBlend mode="normal" in2="BackgroundImageFix" result="effect1_dropShadow_26_3066"/>
<feBlend mode="normal" in="SourceGraphic" in2="effect1_dropShadow_26_3066" result="shape"/>
</filter>
</defs>
</svg>
