<svg width="121" height="126" viewBox="0 0 121 126" fill="none" xmlns="http://www.w3.org/2000/svg">
<g filter="url(#filter0_d_26_2750)">
<rect width="121" height="121" rx="18.6838" transform="matrix(1 0 0 -1 0 121.771)" fill="#006969"/>
<path fill-rule="evenodd" clip-rule="evenodd" d="M56.1169 58.7638C56.0047 58.8325 55.9072 58.9226 55.8299 59.029C55.7525 59.1355 55.6969 59.2561 55.6663 59.384C55.6356 59.5119 55.6304 59.6446 55.6511 59.7745C55.6717 59.9044 55.7178 60.029 55.7866 60.1411C56.7064 61.6405 57.4882 63.1288 58.0086 64.4811C58.1039 64.7289 58.2938 64.9287 58.5364 65.0365C58.779 65.1443 59.0545 65.1514 59.3023 65.0561C59.5501 64.9608 59.7499 64.771 59.8578 64.5283C59.9656 64.2857 59.9726 64.0102 59.8773 63.7624C59.2988 62.257 58.45 60.6546 57.4932 59.0941C57.3544 58.8678 57.1315 58.7059 56.8734 58.644C56.6153 58.582 56.3432 58.6251 56.1169 58.7638ZM66.5405 57.8089C66.7546 57.9656 66.8978 58.2009 66.9385 58.4631C66.9793 58.7253 66.9142 58.993 66.7577 59.2072C65.5996 60.7917 64.5797 62.9106 63.862 64.5281C63.8086 64.6482 63.7321 64.7567 63.6369 64.8473C63.5416 64.9378 63.4294 65.0088 63.3067 65.056C63.184 65.1032 63.0532 65.1258 62.9218 65.1224C62.7904 65.1191 62.6609 65.0899 62.5408 65.0366C62.4207 64.9832 62.3122 64.9067 62.2216 64.8114C62.1311 64.7161 62.0601 64.604 62.0129 64.4813C61.9657 64.3586 61.9431 64.2278 61.9465 64.0964C61.9498 63.965 61.979 63.8355 62.0323 63.7154C62.757 62.0839 63.848 59.7958 65.1422 58.0261C65.2989 57.812 65.5342 57.6688 65.7964 57.6281C66.0586 57.5873 66.3262 57.6524 66.5405 57.8089Z" fill="white"/>
<path fill-rule="evenodd" clip-rule="evenodd" d="M64.1882 49.1451C66.5324 46.4646 79.0669 43.1025 79.0669 43.1025C79.0669 43.1025 76.9359 56.5099 75.0612 58.6538C73.6649 60.2513 69.2158 59.2534 67.0358 58.6398C68.6653 56.1405 70.5541 53.6993 72.2146 51.7615C72.384 51.5596 72.4669 51.299 72.4454 51.0363C72.4238 50.7736 72.2995 50.53 72.0995 50.3584C71.8994 50.1868 71.6397 50.101 71.3768 50.1197C71.1139 50.1385 70.869 50.2601 70.6952 50.4583C69.0207 52.4121 67.0799 54.9124 65.3803 57.5118C64.4254 55.7341 62.3345 51.265 64.1882 49.1451ZM47.9333 67.1246H42.9287V79.1356H47.9333V77.0908C48.9542 77.0487 50.4616 76.9947 50.9831 77.0157C52.7717 77.0887 54.106 77.5151 55.4572 77.9465C56.7164 78.3479 57.9885 78.7543 59.6531 78.8814C60.0715 78.9134 60.4788 78.9545 60.8742 78.9935C62.2985 79.1376 63.5627 79.2657 64.6076 78.8814C65.9408 78.3909 73.5618 74.6605 74.5147 73.6786C75.4676 72.6977 74.9912 70.0473 72.0374 70.5377C70.5801 70.78 68.8916 71.4766 67.3591 72.1082C65.7867 72.7558 64.3794 73.3363 63.5587 73.2863C61.9392 73.1882 57.6532 72.4034 57.6532 72.4034L62.5748 72.4635C62.5748 72.4635 63.2704 72.4995 64.2263 71.8139C65.1821 71.1283 66.0359 69.1635 64.6066 69.1635C63.1773 69.1635 61.6539 68.673 61.6539 68.673L55.5563 67.2988C55.5563 67.2988 53.4604 66.9064 52.6036 67.2988C51.8969 67.6221 48.9522 68.677 47.9333 69.0404V67.1246ZM45.8094 46.7759C45.8094 46.7759 56.1539 49.5505 58.0876 51.7615C59.582 53.4701 57.9715 57.0283 57.1608 58.5597C56.0982 56.8911 54.9509 55.2778 53.7236 53.7263C53.6422 53.6231 53.5412 53.537 53.4265 53.4728C53.3118 53.4086 53.1856 53.3677 53.055 53.3523C52.9245 53.3369 52.7922 53.3474 52.6657 53.3832C52.5392 53.4189 52.421 53.4792 52.3178 53.5606C52.2147 53.6421 52.1285 53.743 52.0643 53.8577C52.0002 53.9725 51.9592 54.0987 51.9439 54.2292C51.9285 54.3598 51.939 54.4921 51.9747 54.6185C52.0104 54.745 52.0708 54.8633 52.1522 54.9664C53.3451 56.4746 54.4596 58.0431 55.4912 59.6657C53.6215 60.1722 50.2164 60.8699 49.1154 59.6097C47.568 57.8401 45.8094 46.7749 45.8094 46.7749" fill="white"/>
</g>
<defs>
<filter id="filter0_d_26_2750" x="0" y="0.771484" width="121" height="125" filterUnits="userSpaceOnUse" color-interpolation-filters="sRGB">
<feFlood flood-opacity="0" result="BackgroundImageFix"/>
<feColorMatrix in="SourceAlpha" type="matrix" values="0 0 0 0 0 0 0 0 0 0 0 0 0 0 0 0 0 0 127 0" result="hardAlpha"/>
<feOffset dy="4"/>
<feComposite in2="hardAlpha" operator="out"/>
<feColorMatrix type="matrix" values="0 0 0 0 0 0 0 0 0 0.340387 0 0 0 0 0.389014 0 0 0 1 0"/>
<feBlend mode="normal" in2="BackgroundImageFix" result="effect1_dropShadow_26_2750"/>
<feBlend mode="normal" in="SourceGraphic" in2="effect1_dropShadow_26_2750" result="shape"/>
</filter>
</defs>
</svg>
