<svg width="121" height="126" viewBox="0 0 121 126" fill="none" xmlns="http://www.w3.org/2000/svg">
<g filter="url(#filter0_d_26_2671)">
<rect width="121" height="121" rx="18.6838" transform="matrix(1 0 0 -1 0 121.371)" fill="#006969"/>
<path fill-rule="evenodd" clip-rule="evenodd" d="M60.9837 42.7031C56.4626 42.7031 52.3438 44.1965 49.9065 45.4166C49.6863 45.5267 49.4808 45.6341 49.29 45.7389C48.9116 45.9451 48.5893 46.1373 48.3331 46.3064L51.1056 50.3882L52.4108 50.9077C57.5115 53.481 64.3518 53.481 69.4535 50.9077L70.9349 50.139L73.5563 46.3064C73.0127 45.9532 72.4481 45.6333 71.8657 45.3486C69.4405 44.1414 65.4198 42.7031 60.9847 42.7031M54.5368 47.3234C53.5552 47.1386 52.5856 46.8953 51.6331 46.5947C53.9162 45.5808 57.3184 44.5048 60.9847 44.5048C63.524 44.5048 65.9253 45.0213 67.9111 45.6759C65.5839 46.0032 63.1007 46.5587 60.7345 47.2423C58.8728 47.7808 56.6968 47.7227 54.5368 47.3234ZM70.5115 52.392L70.2652 52.5161C64.6541 55.3467 57.2113 55.3467 51.6001 52.5161L51.3669 52.398C42.9361 61.6475 36.5002 78.7332 60.9837 78.7332C85.4672 78.7332 78.8751 61.3302 70.5115 52.392ZM59.9438 60.7197C59.4128 60.7197 58.9037 60.9306 58.5282 61.306C58.1528 61.6814 57.9419 62.1906 57.9419 62.7215C57.9419 63.2524 58.1528 63.7616 58.5282 64.137C58.9037 64.5124 59.4128 64.7233 59.9438 64.7233V60.7197ZM61.9456 58.7178V57.7169H59.9438V58.7178C58.8819 58.7178 57.8636 59.1396 57.1127 59.8905C56.3619 60.6413 55.9401 61.6597 55.9401 62.7215C55.9401 63.7833 56.3619 64.8017 57.1127 65.5525C57.8636 66.3034 58.8819 66.7252 59.9438 66.7252V70.7289C59.073 70.7289 58.3313 70.1733 58.055 69.3946C58.014 69.2672 57.9479 69.1493 57.8606 69.0479C57.7732 68.9465 57.6664 68.8637 57.5465 68.8043C57.4266 68.7449 57.296 68.7101 57.1624 68.7021C57.0288 68.694 56.8949 68.7128 56.7688 68.7574C56.6426 68.802 56.5266 68.8714 56.4277 68.9616C56.3288 69.0518 56.249 69.1609 56.1931 69.2825C56.1371 69.404 56.106 69.5356 56.1018 69.6693C56.0975 69.8031 56.1201 69.9364 56.1683 70.0612C56.4443 70.842 56.9555 71.518 57.6317 71.9961C58.3079 72.4742 59.1157 72.7308 59.9438 72.7307V73.7316H61.9456V72.7307C63.0074 72.7307 64.0258 72.3089 64.7766 71.558C65.5275 70.8072 65.9493 69.7889 65.9493 68.727C65.9493 67.6652 65.5275 66.6468 64.7766 65.896C64.0258 65.1452 63.0074 64.7233 61.9456 64.7233V60.7197C62.8164 60.7197 63.5581 61.2752 63.8343 62.0539C63.8753 62.1813 63.9414 62.2992 64.0288 62.4006C64.1161 62.502 64.2229 62.5848 64.3428 62.6443C64.4628 62.7037 64.5934 62.7384 64.727 62.7465C64.8606 62.7545 64.9944 62.7357 65.1206 62.6911C65.2468 62.6465 65.3628 62.5771 65.4616 62.4869C65.5605 62.3967 65.6403 62.2876 65.6963 62.1661C65.7523 62.0445 65.7833 61.9129 65.7876 61.7792C65.7918 61.6454 65.7692 61.5122 65.7211 61.3873C65.4451 60.6065 64.9338 59.9305 64.2577 59.4524C63.5815 58.9743 62.7737 58.7177 61.9456 58.7178ZM61.9456 66.7252V70.7289C62.4765 70.7289 62.9857 70.518 63.3611 70.1425C63.7365 69.7671 63.9474 69.2579 63.9474 68.727C63.9474 68.1961 63.7365 67.6869 63.3611 67.3115C62.9857 66.9361 62.4765 66.7252 61.9456 66.7252Z" fill="white"/>
</g>
<defs>
<filter id="filter0_d_26_2671" x="0" y="0.371094" width="121" height="125" filterUnits="userSpaceOnUse" color-interpolation-filters="sRGB">
<feFlood flood-opacity="0" result="BackgroundImageFix"/>
<feColorMatrix in="SourceAlpha" type="matrix" values="0 0 0 0 0 0 0 0 0 0 0 0 0 0 0 0 0 0 127 0" result="hardAlpha"/>
<feOffset dy="4"/>
<feComposite in2="hardAlpha" operator="out"/>
<feColorMatrix type="matrix" values="0 0 0 0 0 0 0 0 0 0.340387 0 0 0 0 0.389014 0 0 0 1 0"/>
<feBlend mode="normal" in2="BackgroundImageFix" result="effect1_dropShadow_26_2671"/>
<feBlend mode="normal" in="SourceGraphic" in2="effect1_dropShadow_26_2671" result="shape"/>
</filter>
</defs>
</svg>
