<svg width="109" height="109" viewBox="0 0 109 109" fill="none" xmlns="http://www.w3.org/2000/svg">
<rect x="2.42871" y="2.73633" width="103.737" height="103.737" rx="51.8683" fill="#006969"/>
<rect x="2.42871" y="2.73633" width="103.737" height="103.737" rx="51.8683" stroke="#008EA3" stroke-width="4"/>
<path fill-rule="evenodd" clip-rule="evenodd" d="M53.728 39.7363C49.9638 39.7363 46.5347 40.9797 44.5055 41.9955C44.3222 42.0872 44.1511 42.1766 43.9922 42.2638C43.6772 42.4355 43.4088 42.5955 43.1955 42.7363L45.5038 46.1347L46.5905 46.5672C50.8372 48.7097 56.5322 48.7097 60.7797 46.5672L62.013 45.9272L64.1955 42.7363C63.7429 42.4423 63.2729 42.1759 62.788 41.9388C60.7688 40.9338 57.4213 39.7363 53.7288 39.7363M48.3605 43.583C47.5433 43.4292 46.736 43.2266 45.943 42.9763C47.8438 42.1322 50.6763 41.2363 53.7288 41.2363C55.843 41.2363 57.8422 41.6663 59.4955 42.2113C57.558 42.4838 55.4905 42.9463 53.5205 43.5155C51.9705 43.9638 50.1588 43.9155 48.3605 43.583ZM61.6605 47.803L61.4555 47.9063C56.7838 50.263 50.5872 50.263 45.9155 47.9063L45.7213 47.808C38.7022 55.5088 33.3438 69.7338 53.728 69.7338C74.1122 69.7338 68.6238 55.2447 61.6605 47.803ZM52.8622 54.7363C52.4201 54.7363 51.9962 54.9119 51.6837 55.2245C51.3711 55.537 51.1955 55.961 51.1955 56.403C51.1955 56.845 51.3711 57.2689 51.6837 57.5815C51.9962 57.8941 52.4201 58.0697 52.8622 58.0697V54.7363ZM54.5288 53.0697V52.2363H52.8622V53.0697C51.9781 53.0697 51.1303 53.4209 50.5051 54.046C49.88 54.6711 49.5288 55.5189 49.5288 56.403C49.5288 57.2871 49.88 58.1349 50.5051 58.76C51.1303 59.3851 51.9781 59.7363 52.8622 59.7363V63.0697C52.1372 63.0697 51.5197 62.6072 51.2897 61.9588C51.2555 61.8528 51.2005 61.7546 51.1278 61.6702C51.0551 61.5858 50.9661 61.5168 50.8663 61.4673C50.7665 61.4179 50.6577 61.3889 50.5465 61.3822C50.4353 61.3755 50.3238 61.3912 50.2188 61.4283C50.1137 61.4654 50.0172 61.5232 49.9348 61.5983C49.8525 61.6734 49.7861 61.7642 49.7395 61.8654C49.6928 61.9667 49.667 62.0762 49.6635 62.1875C49.6599 62.2989 49.6788 62.4099 49.7188 62.5138C49.9486 63.1639 50.3743 63.7267 50.9372 64.1247C51.5002 64.5228 52.1727 64.7364 52.8622 64.7363V65.5697H54.5288V64.7363C55.4129 64.7363 56.2607 64.3851 56.8859 63.76C57.511 63.1349 57.8622 62.287 57.8622 61.403C57.8622 60.5189 57.511 59.6711 56.8859 59.046C56.2607 58.4209 55.4129 58.0697 54.5288 58.0697V54.7363C55.2538 54.7363 55.8713 55.1988 56.1013 55.8472C56.1355 55.9532 56.1905 56.0514 56.2632 56.1358C56.3359 56.2202 56.4249 56.2892 56.5247 56.3387C56.6245 56.3881 56.7333 56.4171 56.8445 56.4238C56.9557 56.4305 57.0672 56.4148 57.1722 56.3777C57.2773 56.3406 57.3738 56.2828 57.4562 56.2077C57.5385 56.1326 57.6049 56.0418 57.6515 55.9405C57.6982 55.8393 57.724 55.7298 57.7275 55.6184C57.7311 55.5071 57.7123 55.3961 57.6722 55.2922C57.4424 54.6421 57.0167 54.0793 56.4538 53.6813C55.8908 53.2832 55.2183 53.0695 54.5288 53.0697ZM54.5288 59.7363V63.0697C54.9709 63.0697 55.3948 62.8941 55.7073 62.5815C56.0199 62.2689 56.1955 61.845 56.1955 61.403C56.1955 60.961 56.0199 60.537 55.7073 60.2245C55.3948 59.9119 54.9709 59.7363 54.5288 59.7363Z" fill="white"/>
</svg>
