<svg width="554" height="120" viewBox="0 0 554 120" fill="none" xmlns="http://www.w3.org/2000/svg">
<path d="M9.08006 68.8883C14.0818 68.8883 18.1542 64.913 18.1542 59.9995C18.1542 55.08 14.0818 51.1343 9.08006 51.1343C4.06057 51.1343 0 55.08 0 59.9995C0 64.913 4.06057 68.8883 9.08006 68.8883Z" fill="#971D32"/>
<path d="M9.08006 117.692C14.0818 117.692 18.1542 113.723 18.1542 108.827C18.1542 103.913 14.0818 99.9207 9.08006 99.9207C4.06057 99.9207 0 103.913 0 108.827C0 113.723 4.06057 117.692 9.08006 117.692Z" fill="#971D32"/>
<path d="M58.9438 68.8883C63.957 68.8883 68.0118 64.913 68.0118 59.9995C68.0118 55.08 63.957 51.1343 58.9438 51.1343C53.9301 51.1343 49.8637 55.08 49.8637 59.9995C49.8637 64.913 53.9301 68.8883 58.9438 68.8883Z" fill="#971D32"/>
<path d="M58.9438 117.692C63.957 117.692 68.0118 113.723 68.0118 108.827C68.0118 103.913 63.957 99.9207 58.9438 99.9207C53.9301 99.9207 49.8637 103.913 49.8637 108.827C49.8637 113.723 53.9301 117.692 58.9438 117.692Z" fill="#971D32"/>
<path d="M108.783 68.8883C113.809 68.8883 117.87 64.913 117.87 59.9995C117.87 55.08 113.809 51.1343 108.783 51.1343C103.764 51.1343 99.7274 55.08 99.7274 59.9995C99.7274 64.913 103.764 68.8883 108.783 68.8883Z" fill="#971D32"/>
<path d="M9.08006 20.0661C14.0818 20.0661 18.1542 16.0911 18.1542 11.1891C18.1542 6.26958 14.0818 2.31201 9.08006 2.31201C4.06057 2.31201 0 6.26958 0 11.1891C0 16.0911 4.06057 20.0661 9.08006 20.0661Z" fill="#971D32"/>
<path d="M58.9438 20.0661C63.957 20.0661 68.0118 16.0911 68.0118 11.1891C68.0118 6.26958 63.957 2.31201 58.9438 2.31201C53.9301 2.31201 49.8637 6.26958 49.8637 11.1891C49.8637 16.0911 53.9301 20.0661 58.9438 20.0661Z" fill="#971D32"/>
<path d="M108.783 20.0661C113.809 20.0661 117.87 16.0911 117.87 11.1891C117.87 6.26958 113.809 2.31201 108.783 2.31201C103.764 2.31201 99.7274 6.26958 99.7274 11.1891C99.7274 16.0911 103.764 20.0661 108.783 20.0661Z" fill="#971D32"/>
<path d="M108.783 117.692C113.809 117.692 117.87 113.723 117.87 108.827C117.87 103.913 113.809 99.9207 108.783 99.9207C103.764 99.9207 99.7274 103.913 99.7274 108.827C99.7274 113.723 103.764 117.692 108.783 117.692Z" fill="#971D32"/>
<path d="M158.653 68.8883C163.667 68.8883 167.733 64.913 167.733 59.9995C167.733 55.08 163.667 51.1343 158.653 51.1343C153.639 51.1343 149.591 55.08 149.591 59.9995C149.591 64.913 153.639 68.8883 158.653 68.8883Z" fill="#971D32"/>
<path d="M158.653 117.692C163.667 117.692 167.733 113.723 167.733 108.827C167.733 103.913 163.667 99.9207 158.653 99.9207C153.639 99.9207 149.591 103.913 149.591 108.827C149.591 113.723 153.639 117.692 158.653 117.692Z" fill="#971D32"/>
<path d="M158.653 20.0661C163.667 20.0661 167.733 16.0911 167.733 11.1774C167.733 6.28692 163.667 2.30615 158.653 2.30615C153.639 2.30615 149.591 6.28692 149.591 11.1774C149.591 16.0911 153.639 20.0661 158.653 20.0661Z" fill="#971D32"/>
<path d="M215.05 109.31L220.963 96.0114C221.443 94.9162 222.236 94.6033 223.361 95.0727C229.914 98.045 235.987 100.392 247.488 100.392C258.357 100.392 264.909 95.3856 264.909 87.0931C264.909 79.2705 261.239 74.8956 244.612 67.3859C224.16 58.1491 216.488 48.2981 216.488 32.8091C216.488 15.7497 229.115 2.30029 252.129 2.30029C266.354 2.30029 273.865 3.39546 284.408 7.93268C285.533 8.40202 285.846 9.18433 285.373 10.436L279.3 22.3265C278.82 23.4218 278.021 23.8911 276.736 23.2595C269.87 20.6056 263.637 19.1917 255.326 19.1917C243.818 19.1917 238.704 24.9863 238.704 32.3397C238.704 39.3744 241.261 42.9787 258.522 50.4885C279.3 60.0322 287.131 68.7881 287.131 85.2216C287.131 105.242 272.9 117.44 249.093 117.44C235.827 117.44 226.238 116.194 215.849 111.025C215.05 110.561 214.73 110.092 215.05 109.31Z" fill="#971D32"/>
<path d="M367.821 116.358C366.703 116.358 366.063 115.732 366.063 114.481V21.2392C366.063 20.4569 365.744 19.9876 364.945 19.9876H337.774C336.502 19.9876 335.862 19.3618 335.862 18.1101V5.28077C335.862 4.02913 336.502 3.40332 337.774 3.40332H415.289C416.408 3.40332 417.041 4.02913 417.041 5.28077V18.1101C417.041 19.3618 416.408 19.9876 415.289 19.9876H387.8C386.994 19.9876 386.681 20.4569 386.681 21.2392V114.481C386.681 115.732 386.042 116.358 384.763 116.358H367.821Z" fill="#971D32"/>
<path d="M554 81.479C554 103.539 543.774 117.458 512.293 117.458C480.807 117.458 470.586 103.539 470.586 81.479V5.29094C470.586 4.03932 471.214 3.40771 472.497 3.40771H489.431C490.549 3.40771 491.19 4.03932 491.19 5.29094V82.8811C491.19 95.5601 498.226 100.879 512.293 100.879C526.355 100.879 533.391 95.3976 533.391 82.8811V5.29094C533.391 4.03932 534.024 3.40771 535.141 3.40771H552.403C553.52 3.40771 554 4.03932 554 5.29094V81.479Z" fill="#971D32"/>
</svg>
