<svg width="121" height="126" viewBox="0 0 121 126" fill="none" xmlns="http://www.w3.org/2000/svg">
<g filter="url(#filter0_d_26_3076)">
<rect width="121" height="121" rx="18.6838" transform="matrix(1 0 0 -1 0 121.371)" fill="#006969"/>
<path fill-rule="evenodd" clip-rule="evenodd" d="M56.1169 58.3634C56.0047 58.4321 55.9072 58.5222 55.8299 58.6287C55.7525 58.7351 55.6969 58.8557 55.6663 58.9836C55.6356 59.1115 55.6304 59.2442 55.6511 59.3741C55.6717 59.504 55.7178 59.6286 55.7866 59.7407C56.7064 61.2401 57.4882 62.7284 58.0086 64.0807C58.1039 64.3285 58.2938 64.5283 58.5364 64.6361C58.779 64.744 59.0545 64.751 59.3023 64.6557C59.5501 64.5604 59.7499 64.3706 59.8578 64.128C59.9656 63.8853 59.9726 63.6098 59.8773 63.362C59.2988 61.8566 58.45 60.2542 57.4932 58.6937C57.3544 58.4674 57.1315 58.3055 56.8734 58.2436C56.6153 58.1816 56.3432 58.2248 56.1169 58.3634ZM66.5405 57.4085C66.7546 57.5652 66.8978 57.8005 66.9385 58.0627C66.9793 58.3249 66.9142 58.5926 66.7577 58.8068C65.5996 60.3913 64.5797 62.5102 63.862 64.1277C63.8086 64.2479 63.7321 64.3563 63.6369 64.4469C63.5416 64.5374 63.4294 64.6084 63.3067 64.6556C63.184 64.7028 63.0532 64.7254 62.9218 64.7221C62.7904 64.7187 62.6609 64.6895 62.5408 64.6362C62.4207 64.5828 62.3122 64.5063 62.2216 64.411C62.1311 64.3158 62.0601 64.2036 62.0129 64.0809C61.9657 63.9582 61.9431 63.8274 61.9465 63.696C61.9498 63.5646 61.979 63.4351 62.0323 63.315C62.757 61.6835 63.848 59.3954 65.1422 57.6257C65.2989 57.4116 65.5342 57.2684 65.7964 57.2277C66.0586 57.187 66.3262 57.252 66.5405 57.4085Z" fill="white"/>
<path fill-rule="evenodd" clip-rule="evenodd" d="M64.1882 48.7447C66.5324 46.0642 79.0669 42.7021 79.0669 42.7021C79.0669 42.7021 76.9359 56.1095 75.0612 58.2534C73.6649 59.8509 69.2158 58.853 67.0358 58.2394C68.6653 55.7401 70.5541 53.2989 72.2146 51.3611C72.384 51.1592 72.4669 50.8986 72.4454 50.6359C72.4238 50.3732 72.2995 50.1296 72.0995 49.958C71.8994 49.7864 71.6397 49.7007 71.3768 49.7194C71.1139 49.7381 70.869 49.8597 70.6952 50.0579C69.0207 52.0117 67.0799 54.512 65.3803 57.1114C64.4254 55.3337 62.3345 50.8646 64.1882 48.7447ZM47.9333 66.7242H42.9287V78.7352H47.9333V76.6904C48.9542 76.6483 50.4616 76.5943 50.9831 76.6153C52.7717 76.6884 54.106 77.1147 55.4572 77.5461C56.7164 77.9475 57.9885 78.3539 59.6531 78.481C60.0715 78.513 60.4788 78.5541 60.8742 78.5931C62.2985 78.7372 63.5627 78.8654 64.6076 78.481C65.9408 77.9906 73.5618 74.2601 74.5147 73.2782C75.4676 72.2973 74.9912 69.6469 72.0374 70.1373C70.5801 70.3796 68.8916 71.0762 67.3591 71.7078C65.7867 72.3554 64.3794 72.9359 63.5587 72.8859C61.9392 72.7878 57.6532 72.0031 57.6532 72.0031L62.5748 72.0631C62.5748 72.0631 63.2704 72.0991 64.2263 71.4135C65.1821 70.7279 66.0359 68.7631 64.6066 68.7631C63.1773 68.7631 61.6539 68.2726 61.6539 68.2726L55.5563 66.8984C55.5563 66.8984 53.4604 66.506 52.6036 66.8984C51.8969 67.2217 48.9522 68.2766 47.9333 68.64V66.7242ZM45.8094 46.3755C45.8094 46.3755 56.1539 49.1501 58.0876 51.3611C59.582 53.0697 57.9715 56.6279 57.1608 58.1593C56.0982 56.4907 54.9509 54.8774 53.7236 53.3259C53.6422 53.2227 53.5412 53.1366 53.4265 53.0724C53.3118 53.0083 53.1856 52.9673 53.055 52.9519C52.9245 52.9365 52.7922 52.947 52.6657 52.9828C52.5392 53.0185 52.421 53.0788 52.3178 53.1603C52.2147 53.2417 52.1285 53.3426 52.0643 53.4574C52.0002 53.5721 51.9592 53.6983 51.9439 53.8288C51.9285 53.9594 51.939 54.0917 51.9747 54.2182C52.0104 54.3446 52.0708 54.4629 52.1522 54.566C53.3451 56.0742 54.4596 57.6427 55.4912 59.2654C53.6215 59.7718 50.2164 60.4695 49.1154 59.2093C47.568 57.4397 45.8094 46.3745 45.8094 46.3745" fill="white"/>
</g>
<defs>
<filter id="filter0_d_26_3076" x="0" y="0.371094" width="121" height="125" filterUnits="userSpaceOnUse" color-interpolation-filters="sRGB">
<feFlood flood-opacity="0" result="BackgroundImageFix"/>
<feColorMatrix in="SourceAlpha" type="matrix" values="0 0 0 0 0 0 0 0 0 0 0 0 0 0 0 0 0 0 127 0" result="hardAlpha"/>
<feOffset dy="4"/>
<feComposite in2="hardAlpha" operator="out"/>
<feColorMatrix type="matrix" values="0 0 0 0 0 0 0 0 0 0.340387 0 0 0 0 0.389014 0 0 0 1 0"/>
<feBlend mode="normal" in2="BackgroundImageFix" result="effect1_dropShadow_26_3076"/>
<feBlend mode="normal" in="SourceGraphic" in2="effect1_dropShadow_26_3076" result="shape"/>
</filter>
</defs>
</svg>
