<svg width="109" height="109" viewBox="0 0 109 109" fill="none" xmlns="http://www.w3.org/2000/svg">
<rect x="2.83472" y="2.91309" width="103.737" height="103.737" rx="51.8683" fill="#006969"/>
<rect x="2.83472" y="2.91309" width="103.737" height="103.737" rx="51.8683" stroke="#008EA3" stroke-width="4"/>
<path d="M52.4346 68.4128L66.1013 54.7461C66.9346 53.9128 67.9346 53.4128 69.1013 53.4128C70.2679 53.4128 71.2679 53.9128 72.1013 54.7461L72.4346 55.0794V41.5794C72.4346 39.7461 70.9346 38.2461 69.1013 38.2461H39.1013C37.2679 38.2461 35.7679 39.7461 35.7679 41.5794V68.2461C35.7679 70.0794 37.2679 71.5794 39.1013 71.5794H52.4346V68.4128ZM39.1013 41.5794H69.1013V46.5794H39.1013V41.5794ZM69.1013 56.7461C68.9346 56.7461 68.6013 56.9128 68.4346 57.0794L66.7679 58.7461L70.2679 62.2461L71.9346 60.5794C72.2679 60.2461 72.2679 59.5794 71.9346 59.2461L69.7679 57.0794C69.6013 56.9128 69.4346 56.7461 69.1013 56.7461ZM65.9346 59.7461L55.7679 69.7461V73.2461H59.2679L69.4346 63.0794L65.9346 59.7461Z" fill="white"/>
</svg>
