<svg width="75" height="76" viewBox="0 0 75 76" fill="none" xmlns="http://www.w3.org/2000/svg">
<circle cx="37.5" cy="38.4492" r="37.5" fill="white"/>
<path d="M35.8987 22.0724C36.6112 20.7918 36.9675 20.1543 37.5 20.1543C38.0325 20.1543 38.3888 20.7918 39.1012 22.0724L39.285 22.4024C39.4875 22.7662 39.5887 22.9462 39.7463 23.0662C39.9056 23.1862 40.1025 23.2312 40.4962 23.3193L40.8525 23.4018C42.2362 23.7149 42.9281 23.8705 43.0931 24.3993C43.2581 24.928 42.7856 25.4812 41.8425 26.5837L41.5988 26.8687C41.3306 27.1818 41.1956 27.3374 41.1356 27.5324C41.0756 27.7274 41.0963 27.9355 41.1356 28.3537L41.1731 28.7343C41.3156 30.2062 41.3869 30.943 40.9575 31.2693C40.5262 31.5974 39.8775 31.2974 38.5819 30.7012L38.2481 30.5474C37.8788 30.3787 37.695 30.2924 37.5 30.2924C37.305 30.2924 37.1212 30.3787 36.7519 30.5474L36.4181 30.7012C35.1225 31.2974 34.4738 31.5974 34.0425 31.2693C33.6113 30.943 33.6844 30.2062 33.8269 28.7343L33.8644 28.3537C33.9037 27.9355 33.9244 27.7274 33.8644 27.5324C33.8044 27.3374 33.6694 27.1818 33.4013 26.8687L33.1575 26.5837C32.2144 25.4812 31.7419 24.9299 31.9069 24.3993C32.0719 23.8705 32.7637 23.7149 34.1475 23.4018L34.5038 23.3193C34.8975 23.2312 35.0944 23.188 35.2537 23.0662C35.4113 22.9462 35.5125 22.7662 35.715 22.4024L35.8987 22.0724ZM39.375 35.1543H35.625C32.9737 35.1543 31.6481 35.1543 30.825 35.9793C30 36.8005 30 38.1262 30 40.7793V57.6543H45V40.7793C45 38.128 45 36.8024 44.175 35.9793C43.3538 35.1543 42.0281 35.1543 39.375 35.1543Z" fill="#006969"/>
<path opacity="0.5" d="M29.175 52.8543C28.3538 52.0293 27.0281 52.0293 24.375 52.0293C21.7219 52.0293 20.3981 52.0293 19.575 52.8543C18.75 53.6755 18.75 55.0012 18.75 57.6543H30C30 55.003 30 53.6774 29.175 52.8543ZM45 52.0293V57.6543H56.25V52.0293C56.25 49.378 56.25 48.0524 55.425 47.2293C54.6037 46.4043 53.2781 46.4043 50.625 46.4043C47.9719 46.4043 46.6481 46.4043 45.825 47.2293C45 48.0505 45 49.3762 45 52.0293Z" fill="#006969"/>
</svg>
