<svg width="110" height="111" viewBox="0 0 110 111" fill="none" xmlns="http://www.w3.org/2000/svg">
<path fill-rule="evenodd" clip-rule="evenodd" d="M0.0478516 55.5757C0.0478516 25.2132 24.6615 0.599609 55.0239 0.599609C85.3864 0.599609 110 25.2132 110 55.5757C110 85.9381 85.3864 110.552 55.0239 110.552C24.6615 110.552 0.0478516 85.9381 0.0478516 55.5757ZM55.0239 28.0876C70.1423 28.0876 82.512 40.4573 82.512 55.5757C82.512 69.3197 72.5476 81.0021 58.8035 83.0637V63.4785H65.3319L66.7063 55.5757H59.1471V50.4217C59.1471 48.3601 60.1779 46.2985 63.6139 46.2985H67.0499V39.4265C67.0499 39.4265 63.9575 38.7393 60.8651 38.7393C54.6803 38.7393 50.5571 42.5189 50.5571 49.3909V55.5757H43.6851V63.4785H50.5571V82.7201C37.5003 80.6585 27.5359 69.3197 27.5359 55.5757C27.5359 40.4573 39.9055 28.0876 55.0239 28.0876Z" fill="#006969"/>
</svg>
