<svg width="88" height="87" viewBox="0 0 88 87" fill="none" xmlns="http://www.w3.org/2000/svg">
<g clip-path="url(#clip0_3_7078)">
<path d="M43.8883 86.2427C67.7002 86.2427 87.0036 66.9393 87.0036 43.1274C87.0036 19.3154 67.7002 0.0120239 43.8883 0.0120239C20.0763 0.0120239 0.772949 19.3154 0.772949 43.1274C0.772949 66.9393 20.0763 86.2427 43.8883 86.2427Z" fill="#F0F0F0"/>
<path d="M86.9962 43.1273C86.9962 24.5892 75.2958 8.78556 58.8774 2.69366V83.561C75.2958 77.469 86.9962 61.6653 86.9962 43.1273Z" fill="#D80027"/>
<path d="M0.772949 43.1273C0.772949 61.6653 12.4735 77.469 28.8917 83.5609V2.69366C12.4735 8.78556 0.772949 24.5892 0.772949 43.1273Z" fill="#0052B4"/>
<circle cx="43.9045" cy="43.1284" r="43.1154" fill="url(#paint0_linear_3_7078)" style="mix-blend-mode:overlay"/>
</g>
<defs>
<linearGradient id="paint0_linear_3_7078" x1="87.0199" y1="0.0130353" x2="-15.3312" y2="57.5855" gradientUnits="userSpaceOnUse">
<stop stop-color="white" stop-opacity="0.3"/>
<stop offset="0.262741" stop-opacity="0.27"/>
<stop offset="0.369956" stop-color="white" stop-opacity="0.26"/>
<stop offset="0.487001" stop-opacity="0.55"/>
<stop offset="0.594445" stop-opacity="0.24"/>
<stop offset="0.736408" stop-color="white" stop-opacity="0.3"/>
<stop offset="0.901459" stop-color="#272727" stop-opacity="0.22"/>
<stop offset="1" stop-opacity="0.2"/>
</linearGradient>
<clipPath id="clip0_3_7078">
<rect width="86.2307" height="86.2307" fill="white" transform="translate(0.787109 0.0119629)"/>
</clipPath>
</defs>
</svg>
