<svg width="109" height="109" viewBox="0 0 109 109" fill="none" xmlns="http://www.w3.org/2000/svg">
<rect x="2.63171" y="2.55957" width="103.737" height="103.737" rx="51.8683" fill="#006969"/>
<rect x="2.63171" y="2.55957" width="103.737" height="103.737" rx="51.8683" stroke="#008EA3" stroke-width="4"/>
<path opacity="0.5" d="M65.565 44.5596H42.2317C40.9056 44.5596 39.6338 45.0864 38.6962 46.024C37.7585 46.9617 37.2317 48.2335 37.2317 49.5596V54.0929L48.6267 57.8929H59.17L70.565 54.0929V49.5596C70.565 48.2335 70.0382 46.9617 69.1006 46.024C68.1629 45.0864 66.8911 44.5596 65.565 44.5596Z" fill="white"/>
<path d="M50.565 44.5596V42.8929H57.2317V44.5596H60.565V42.8929C60.565 42.0088 60.2138 41.161 59.5887 40.5359C58.9636 39.9108 58.1157 39.5596 57.2317 39.5596H50.565C49.681 39.5596 48.8331 39.9108 48.208 40.5359C47.5829 41.161 47.2317 42.0088 47.2317 42.8929V44.5596H50.565ZM48.6267 57.8929L37.2317 54.0929V64.5596C37.233 65.8852 37.7602 67.1562 38.6976 68.0936C39.635 69.031 40.906 69.5582 42.2317 69.5596H65.565C66.8907 69.5582 68.1617 69.031 69.0991 68.0936C70.0365 67.1562 70.5637 65.8852 70.565 64.5596V54.0929L59.17 57.8929H48.6267Z" fill="white"/>
</svg>
