<svg width="37" height="38" viewBox="0 0 37 38" fill="none" xmlns="http://www.w3.org/2000/svg">
<path d="M28.2279 27.5473L18.4456 37.3296L8.66329 27.5473C6.72856 25.6125 5.411 23.1475 4.87721 20.4639C4.34343 17.7803 4.6174 14.9987 5.66449 12.4709C6.71157 9.94302 8.48474 7.78242 10.7598 6.26231C13.0348 4.74219 15.7095 3.93083 18.4456 3.93083C21.1818 3.93083 23.8565 4.74219 26.1315 6.26231C28.4065 7.78242 30.1797 9.94302 31.2267 12.4709C32.2738 14.9987 32.5478 17.7803 32.014 20.4639C31.4802 23.1475 30.1627 25.6125 28.2279 27.5473ZM18.4456 23.9135C20.0763 23.9135 21.6402 23.2657 22.7933 22.1126C23.9464 20.9595 24.5942 19.3956 24.5942 17.7649C24.5942 16.1342 23.9464 14.5703 22.7933 13.4173C21.6402 12.2642 20.0763 11.6164 18.4456 11.6164C16.8149 11.6164 15.251 12.2642 14.0979 13.4173C12.9449 14.5703 12.2971 16.1342 12.2971 17.7649C12.2971 19.3956 12.9449 20.9595 14.0979 22.1126C15.251 23.2657 16.8149 23.9135 18.4456 23.9135ZM18.4456 20.8392C17.6303 20.8392 16.8483 20.5153 16.2718 19.9388C15.6952 19.3622 15.3713 18.5803 15.3713 17.7649C15.3713 16.9496 15.6952 16.1676 16.2718 15.5911C16.8483 15.0146 17.6303 14.6907 18.4456 14.6907C19.261 14.6907 20.0429 15.0146 20.6195 15.5911C21.196 16.1676 21.5199 16.9496 21.5199 17.7649C21.5199 18.5803 21.196 19.3622 20.6195 19.9388C20.0429 20.5153 19.261 20.8392 18.4456 20.8392Z" fill="white"/>
</svg>
