<svg width="109" height="109" viewBox="0 0 109 109" fill="none" xmlns="http://www.w3.org/2000/svg">
<rect x="2.42896" y="2.55957" width="103.737" height="103.737" rx="51.8683" fill="#006969"/>
<rect x="2.42896" y="2.55957" width="103.737" height="103.737" rx="51.8683" stroke="#008EA3" stroke-width="4"/>
<path d="M53.8622 69.5596C53.39 69.5596 52.9944 69.3996 52.6756 69.0796C52.3567 68.7596 52.1967 68.364 52.1956 67.8929C52.1956 67.6985 52.2372 67.4968 52.3206 67.2879C52.4039 67.079 52.5289 66.8918 52.6956 66.7262L59.8206 59.6012C59.9872 59.4346 60.0706 59.2329 60.0706 58.9962C60.0706 58.7596 59.9872 58.5585 59.8206 58.3929C59.6539 58.2273 59.4522 58.1507 59.2156 58.1629C58.9789 58.1751 58.7778 58.2657 58.6122 58.4346L51.5289 65.5179C51.3622 65.6846 51.1817 65.8096 50.9872 65.8929C50.7928 65.9762 50.5844 66.0179 50.3622 66.0179C49.89 66.0179 49.4944 65.8579 49.1756 65.5379C48.8567 65.2179 48.6967 64.8229 48.6956 64.3529C48.6956 64.0751 48.7372 63.8457 48.8206 63.6646C48.9039 63.4835 49.015 63.324 49.1539 63.1862L56.2789 56.0596C56.4456 55.8929 56.5289 55.6985 56.5289 55.4762C56.5289 55.254 56.4456 55.0596 56.2789 54.8929C56.1122 54.7262 55.9178 54.6429 55.6956 54.6429C55.4733 54.6429 55.2789 54.7262 55.1122 54.8929L47.9872 61.9762C47.8206 62.1429 47.64 62.2679 47.4456 62.3512C47.2511 62.4346 47.0289 62.4762 46.7789 62.4762C46.3344 62.4762 45.9456 62.3096 45.6122 61.9762C45.2789 61.6429 45.1122 61.254 45.1122 60.8096C45.1122 60.5873 45.1539 60.379 45.2372 60.1846C45.3206 59.9901 45.4456 59.8096 45.6122 59.6429L52.6956 52.5596C52.8622 52.3929 52.9456 52.1912 52.9456 51.9546C52.9456 51.7179 52.8622 51.5168 52.6956 51.3512C52.5289 51.1857 52.3344 51.1023 52.1122 51.1012C51.89 51.1001 51.6956 51.1835 51.5289 51.3512L44.4456 58.4762C44.3067 58.6151 44.14 58.7262 43.9456 58.8096C43.7511 58.8929 43.515 58.9346 43.2372 58.9346C42.765 58.9346 42.3694 58.7746 42.0506 58.4546C41.7317 58.1346 41.5717 57.739 41.5706 57.2679C41.5706 57.0457 41.6122 56.8373 41.6956 56.6429C41.7789 56.4485 41.9039 56.2679 42.0706 56.1012L50.2372 47.9346C50.5428 47.629 50.925 47.4901 51.3839 47.5179C51.8428 47.5457 52.2244 47.7123 52.5289 48.0179L57.6122 53.1012C57.9178 53.4068 58.2789 53.6501 58.6956 53.8312C59.1122 54.0123 59.5289 54.1023 59.9456 54.1012C60.8344 54.1012 61.6122 53.789 62.2789 53.1646C62.9456 52.5401 63.2789 51.7412 63.2789 50.7679C63.2789 50.379 63.2094 49.9762 63.0706 49.5596C62.9317 49.1429 62.6817 48.754 62.3206 48.3929L56.6122 42.6846C56.3067 42.379 56.105 42.0457 56.0072 41.6846C55.9094 41.3235 55.9583 40.9762 56.1539 40.6429C56.4039 40.2262 56.7233 39.9207 57.1122 39.7262C57.5011 39.5318 57.9317 39.4346 58.4039 39.4346C58.9872 39.4346 59.5844 39.5735 60.1956 39.8512C60.8067 40.129 61.3622 40.5179 61.8622 41.0179L68.9039 48.1012C69.4039 48.6012 69.7722 49.1568 70.0089 49.7679C70.2456 50.379 70.3633 51.0873 70.3622 51.8929C70.3622 52.4485 70.2372 53.0112 69.9872 53.5812C69.7372 54.1512 69.3761 54.6718 68.9039 55.1429L55.0289 69.0596C54.8067 69.2818 54.6122 69.4207 54.4456 69.4762C54.2789 69.5318 54.0844 69.5596 53.8622 69.5596ZM38.5289 54.7679C38.0011 54.379 37.6056 53.914 37.3422 53.3729C37.0789 52.8318 36.9467 52.2551 36.9456 51.6429C36.9456 51.004 37.0778 50.379 37.3422 49.7679C37.6067 49.1568 37.9883 48.6012 38.4872 48.1012L45.5289 41.0179C46.0011 40.5457 46.5222 40.1846 47.0922 39.9346C47.6622 39.6846 48.2661 39.5596 48.9039 39.5596C49.5983 39.5596 50.2722 39.6846 50.9256 39.9346C51.5789 40.1846 52.1411 40.5457 52.6122 41.0179L61.1539 49.5596C61.2928 49.6985 61.4111 49.8723 61.5089 50.0812C61.6067 50.2901 61.655 50.5051 61.6539 50.7262C61.6539 51.1985 61.4944 51.5946 61.1756 51.9146C60.8567 52.2346 60.4606 52.394 59.9872 52.3929C59.765 52.3929 59.55 52.3446 59.3422 52.2479C59.1344 52.1512 58.9606 52.0329 58.8206 51.8929L53.6956 46.8096C53.0567 46.1707 52.2722 45.8512 51.3422 45.8512C50.4122 45.8512 49.6272 46.1707 48.9872 46.8096L41.1539 54.6429C40.7928 55.004 40.3694 55.1918 39.8839 55.2062C39.3983 55.2207 38.9467 55.0746 38.5289 54.7679Z" fill="white"/>
</svg>
