<svg width="121" height="126" viewBox="0 0 121 126" fill="none" xmlns="http://www.w3.org/2000/svg">
<g filter="url(#filter0_d_26_2703)">
<rect width="121" height="121" rx="18.6838" transform="matrix(1 0 0 -1 0 121.972)" fill="#006969"/>
<path d="M61.1453 79.3365C60.5781 79.3365 60.103 79.1444 59.72 78.76C59.337 78.3757 59.1448 77.9006 59.1435 77.3347C59.1435 77.1012 59.1935 76.8589 59.2936 76.608C59.3937 76.3571 59.5438 76.1323 59.744 75.9334L68.3019 67.3756C68.5021 67.1754 68.6022 66.9332 68.6022 66.6489C68.6022 66.3646 68.5021 66.1231 68.3019 65.9242C68.1017 65.7254 67.8595 65.6333 67.5752 65.648C67.291 65.6627 67.0494 65.7714 66.8506 65.9743L58.3427 74.4821C58.1426 74.6823 57.9257 74.8324 57.6921 74.9325C57.4586 75.0326 57.2084 75.0826 56.9415 75.0826C56.3743 75.0826 55.8992 74.8905 55.5161 74.5061C55.1331 74.1218 54.941 73.6473 54.9396 73.0828C54.9396 72.7492 54.9897 72.4736 55.0898 72.256C55.1898 72.0385 55.3233 71.847 55.4901 71.6815L64.048 63.1217C64.2482 62.9215 64.3483 62.6879 64.3483 62.421C64.3483 62.1541 64.2482 61.9206 64.048 61.7204C63.8478 61.5202 63.6143 61.4201 63.3473 61.4201C63.0804 61.4201 62.8469 61.5202 62.6467 61.7204L54.0888 70.2282C53.8887 70.4284 53.6718 70.5785 53.4382 70.6786C53.2047 70.7787 52.9378 70.8287 52.6375 70.8287C52.1037 70.8287 51.6366 70.6286 51.2362 70.2282C50.8359 69.8278 50.6357 69.3607 50.6357 68.8269C50.6357 68.56 50.6857 68.3098 50.7858 68.0762C50.8859 67.8427 51.036 67.6258 51.2362 67.4256L59.744 58.9178C59.9442 58.7176 60.0443 58.4754 60.0443 58.1911C60.0443 57.9069 59.9442 57.6653 59.744 57.4665C59.5438 57.2676 59.3103 57.1675 59.0434 57.1662C58.7765 57.1649 58.5429 57.2649 58.3427 57.4665L49.8349 66.0243C49.6681 66.1911 49.4679 66.3246 49.2344 66.4247C49.0008 66.5248 48.7172 66.5748 48.3836 66.5748C47.8164 66.5748 47.3413 66.3827 46.9583 65.9983C46.5753 65.6139 46.3831 65.1388 46.3818 64.573C46.3818 64.3061 46.4318 64.0558 46.5319 63.8223C46.632 63.5888 46.7821 63.3719 46.9823 63.1717L56.7913 53.3627C57.1583 52.9957 57.6174 52.8289 58.1686 52.8622C58.7198 52.8956 59.1782 53.0958 59.5438 53.4628L65.6495 59.5684C66.0165 59.9354 66.4502 60.2277 66.9506 60.4452C67.4511 60.6627 67.9516 60.7708 68.452 60.7695C69.5197 60.7695 70.4539 60.3945 71.2546 59.6445C72.0553 58.8944 72.4557 57.9349 72.4557 56.7658C72.4557 56.2987 72.3723 55.8149 72.2055 55.3145C72.0387 54.814 71.7384 54.3469 71.3046 53.9132L64.4484 47.0569C64.0813 46.6899 63.8391 46.2895 63.7217 45.8558C63.6042 45.4221 63.663 45.005 63.8978 44.6047C64.1981 44.1042 64.5818 43.7372 65.0489 43.5036C65.516 43.2701 66.0331 43.1533 66.6003 43.1533C67.301 43.1533 68.0183 43.3201 68.7523 43.6538C69.4863 43.9874 70.1536 44.4545 70.7541 45.0551L79.2119 53.5629C79.8125 54.1634 80.2549 54.8307 80.5391 55.5647C80.8234 56.2987 80.9648 57.1495 80.9635 58.1171C80.9635 58.7843 80.8134 59.4603 80.5131 60.1449C80.2128 60.8296 79.7791 61.4548 79.2119 62.0206L62.5466 78.736C62.2797 79.0029 62.0461 79.1697 61.846 79.2365C61.6458 79.3032 61.4122 79.3365 61.1453 79.3365ZM42.7284 61.5702C42.0945 61.1031 41.6194 60.5446 41.3031 59.8947C40.9868 59.2448 40.828 58.5521 40.8267 57.8168C40.8267 57.0494 40.9855 56.2987 41.3031 55.5647C41.6207 54.8307 42.0791 54.1634 42.6784 53.5629L51.1361 45.0551C51.7033 44.4879 52.3292 44.0541 53.0139 43.7539C53.6985 43.4536 54.4238 43.3035 55.1898 43.3035C56.0239 43.3035 56.8334 43.4536 57.6181 43.7539C58.4028 44.0541 59.0781 44.4879 59.6439 45.0551L69.9034 55.3145C70.0702 55.4813 70.2123 55.6902 70.3298 55.9411C70.4472 56.192 70.5052 56.4502 70.5039 56.7158C70.5039 57.283 70.3124 57.7587 69.9294 58.1431C69.5464 58.5274 69.0706 58.7189 68.5021 58.7176C68.2352 58.7176 67.9769 58.6596 67.7274 58.5435C67.4778 58.4273 67.2689 58.2852 67.1008 58.1171L60.9451 52.0115C60.1778 51.2441 59.2356 50.8604 58.1185 50.8604C57.0015 50.8604 56.0586 51.2441 55.2899 52.0115L45.8813 61.4201C45.4476 61.8538 44.9391 62.0794 44.3559 62.0967C43.7727 62.1141 43.2302 61.9386 42.7284 61.5702Z" fill="white"/>
</g>
<defs>
<filter id="filter0_d_26_2703" x="0" y="0.97168" width="121" height="125" filterUnits="userSpaceOnUse" color-interpolation-filters="sRGB">
<feFlood flood-opacity="0" result="BackgroundImageFix"/>
<feColorMatrix in="SourceAlpha" type="matrix" values="0 0 0 0 0 0 0 0 0 0 0 0 0 0 0 0 0 0 127 0" result="hardAlpha"/>
<feOffset dy="4"/>
<feComposite in2="hardAlpha" operator="out"/>
<feColorMatrix type="matrix" values="0 0 0 0 0 0 0 0 0 0.340387 0 0 0 0 0.389014 0 0 0 1 0"/>
<feBlend mode="normal" in2="BackgroundImageFix" result="effect1_dropShadow_26_2703"/>
<feBlend mode="normal" in="SourceGraphic" in2="effect1_dropShadow_26_2703" result="shape"/>
</filter>
</defs>
</svg>
