<svg width="111" height="111" viewBox="0 0 111 111" fill="none" xmlns="http://www.w3.org/2000/svg">
<path fill-rule="evenodd" clip-rule="evenodd" d="M0.952148 55.5757C0.952148 25.2132 25.5658 0.599609 55.9282 0.599609C86.2907 0.599609 110.904 25.2132 110.904 55.5757C110.904 85.9381 86.2907 110.552 55.9282 110.552C25.5658 110.552 0.952148 85.9381 0.952148 55.5757ZM76.8879 40.1137C79.2931 39.7701 81.3547 39.4265 83.4163 38.3957C82.0419 40.8009 79.9803 42.8625 77.5751 44.2369C78.2623 60.3861 66.5798 77.9097 45.6202 77.9097C39.4354 77.9097 33.5942 75.8481 28.4402 72.7557C34.2814 73.4429 40.4662 71.7249 44.5894 68.6325C39.4354 68.6325 35.3122 65.1965 33.9378 60.7297C35.6558 61.0733 37.3738 60.7297 39.0918 60.3861C33.9378 59.0117 30.1582 54.2013 30.1582 49.0473C31.8762 49.7345 33.5942 50.4217 35.3122 50.4217C30.5018 46.9857 28.7838 40.4573 31.8762 35.3033C37.7174 42.1753 45.9638 46.6421 55.241 46.9857C53.523 40.1137 59.0206 33.2417 66.2362 33.2417C69.3286 33.2417 72.421 34.6161 74.4826 36.6777C77.2314 35.9905 79.6367 35.3033 81.6983 33.9289C81.0111 36.6777 79.2931 38.7393 76.8879 40.1137Z" fill="#006969"/>
</svg>
