<svg width="121" height="126" viewBox="0 0 121 126" fill="none" xmlns="http://www.w3.org/2000/svg">
<g filter="url(#filter0_d_26_2686)">
<rect width="121" height="121" rx="18.6838" transform="matrix(1 0 0 -1 0 121.171)" fill="#006969"/>
<g clip-path="url(#clip0_26_2686)">
<path d="M76.1349 58.4597C76.1349 58.4597 76.7685 61.5631 76.9111 62.2132H74.126L75.4608 58.5843C75.4442 58.6099 75.7355 57.8246 75.9022 57.3412L76.1349 58.4597ZM84.9675 45.8391V75.2001C84.9663 76.2617 84.5441 77.2795 83.7934 78.0302C83.0427 78.7808 82.0249 79.2031 80.9633 79.2043H40.9261C39.8644 79.2031 38.8467 78.7808 38.096 78.0302C37.3453 77.2795 36.9231 76.2617 36.9219 75.2001V45.8391C36.9231 44.7775 37.3453 43.7597 38.096 43.0091C38.8467 42.2584 39.8644 41.8362 40.9261 41.835H80.9633C82.0249 41.8362 83.0427 42.2584 83.7934 43.0091C84.5441 43.7597 84.9663 44.7775 84.9675 45.8391ZM49.6431 66.7924L54.9144 53.8475H51.3696L48.0921 62.6891L47.7333 60.8965L46.5652 54.9405C46.3731 54.1147 45.7815 53.8805 45.0473 53.8475H39.6514L39.5928 54.1057C40.8285 54.4092 42.0138 54.8896 43.1121 55.532L46.0983 66.7924H49.6431ZM57.5178 66.8089L59.6197 53.8475H56.2671L54.1742 66.8089H57.5178ZM69.1865 62.572C69.203 61.0961 68.3022 59.9701 66.3759 59.0438C65.2003 58.4507 64.4827 58.0514 64.4827 57.4418C64.4992 56.8908 65.0922 56.3233 66.409 56.3233C67.2667 56.2978 68.1191 56.4661 68.9027 56.8157L69.203 56.9568L69.6624 54.1538C68.7035 53.7884 67.6858 53.6017 66.6597 53.6028C63.3476 53.6028 61.0205 55.3714 61.004 57.8892C60.9785 59.7494 62.672 60.7839 63.9407 61.4084C65.2334 62.042 65.6763 62.4594 65.6763 63.0179C65.6598 63.8857 64.6253 64.2851 63.6659 64.2851C62.3312 64.2851 61.6136 64.0764 60.5205 63.5929L60.0791 63.3843L59.6122 66.2954C60.3959 66.6543 61.8478 66.971 63.3491 66.9876C66.8684 66.9951 69.1625 65.252 69.188 62.5675L69.1865 62.572ZM80.9633 66.8089L78.2608 53.8475H75.6665C74.8662 53.8475 74.2567 54.0817 73.9143 54.924L68.9343 66.8104H72.4535C72.4535 66.8104 73.0285 65.2084 73.1546 64.8676H77.4591C77.5597 65.327 77.86 66.8104 77.86 66.8104L80.9633 66.8089Z" fill="white"/>
</g>
</g>
<defs>
<filter id="filter0_d_26_2686" x="0" y="0.170898" width="121" height="125" filterUnits="userSpaceOnUse" color-interpolation-filters="sRGB">
<feFlood flood-opacity="0" result="BackgroundImageFix"/>
<feColorMatrix in="SourceAlpha" type="matrix" values="0 0 0 0 0 0 0 0 0 0 0 0 0 0 0 0 0 0 127 0" result="hardAlpha"/>
<feOffset dy="4"/>
<feComposite in2="hardAlpha" operator="out"/>
<feColorMatrix type="matrix" values="0 0 0 0 0 0 0 0 0 0.340387 0 0 0 0 0.389014 0 0 0 1 0"/>
<feBlend mode="normal" in2="BackgroundImageFix" result="effect1_dropShadow_26_2686"/>
<feBlend mode="normal" in="SourceGraphic" in2="effect1_dropShadow_26_2686" result="shape"/>
</filter>
<clipPath id="clip0_26_2686">
<rect width="48.0441" height="48.0441" fill="white" transform="translate(36.9229 36.4971)"/>
</clipPath>
</defs>
</svg>
