<svg width="109" height="109" viewBox="0 0 109 109" fill="none" xmlns="http://www.w3.org/2000/svg">
<rect x="2.63171" y="2.73633" width="103.737" height="103.737" rx="51.8683" fill="#006969"/>
<rect x="2.63171" y="2.73633" width="103.737" height="103.737" rx="51.8683" stroke="#008EA3" stroke-width="4"/>
<g clip-path="url(#clip0_778_416)">
<path d="M66.5446 53.0219C66.5446 53.0219 67.0721 55.6057 67.1908 56.1469H64.8721L65.9833 53.1257C65.9696 53.1469 66.2121 52.4932 66.3508 52.0907L66.5446 53.0219ZM73.8983 42.5144V66.9594C73.8974 67.8433 73.5458 68.6907 72.9208 69.3156C72.2958 69.9406 71.4485 70.2922 70.5646 70.2932H37.2308C36.347 70.2922 35.4996 69.9406 34.8746 69.3156C34.2496 68.6907 33.8981 67.8433 33.8971 66.9594V42.5144C33.8981 41.6306 34.2496 40.7832 34.8746 40.1582C35.4996 39.5332 36.347 39.1817 37.2308 39.1807H70.5646C71.4485 39.1817 72.2958 39.5332 72.9208 40.1582C73.5458 40.7832 73.8974 41.6306 73.8983 42.5144ZM44.4883 59.9594L48.8771 49.1819H45.9258L43.1971 56.5432L42.8983 55.0507L41.9258 50.0919C41.7658 49.4044 41.2733 49.2094 40.6621 49.1819H36.1696L36.1208 49.3969C37.1496 49.6496 38.1365 50.0496 39.0508 50.5844L41.5371 59.9594H44.4883ZM51.0446 59.9732L52.7946 49.1819H50.0033L48.2608 59.9732H51.0446ZM60.7596 56.4457C60.7733 55.2169 60.0233 54.2794 58.4196 53.5082C57.4408 53.0144 56.8433 52.6819 56.8433 52.1744C56.8571 51.7157 57.3508 51.2432 58.4471 51.2432C59.1612 51.222 59.8709 51.3621 60.5233 51.6532L60.7733 51.7707L61.1558 49.4369C60.3575 49.1327 59.5102 48.9772 58.6558 48.9782C55.8983 48.9782 53.9608 50.4507 53.9471 52.5469C53.9258 54.0957 55.3358 54.9569 56.3921 55.4769C57.4683 56.0044 57.8371 56.3519 57.8371 56.8169C57.8233 57.5394 56.9621 57.8719 56.1633 57.8719C55.0521 57.8719 54.4546 57.6982 53.5446 57.2957L53.1771 57.1219L52.7883 59.5457C53.4408 59.8444 54.6496 60.1082 55.8996 60.1219C58.8296 60.1282 60.7396 58.6769 60.7608 56.4419L60.7596 56.4457ZM70.5646 59.9732L68.3146 49.1819H66.1546C65.4883 49.1819 64.9808 49.3769 64.6958 50.0782L60.5496 59.9744H63.4796C63.4796 59.9744 63.9583 58.6407 64.0633 58.3569H67.6471C67.7308 58.7394 67.9808 59.9744 67.9808 59.9744L70.5646 59.9732Z" fill="white"/>
</g>
<defs>
<clipPath id="clip0_778_416">
<rect width="40" height="40" fill="white" transform="translate(33.8983 34.7363)"/>
</clipPath>
</defs>
</svg>
