<svg width="109" height="109" viewBox="0 0 109 109" fill="none" xmlns="http://www.w3.org/2000/svg">
<rect x="2.83472" y="2.55957" width="103.737" height="103.737" rx="51.8683" fill="#006969"/>
<rect x="2.83472" y="2.55957" width="103.737" height="103.737" rx="51.8683" stroke="#008EA3" stroke-width="4"/>
<path fill-rule="evenodd" clip-rule="evenodd" d="M50.0814 52.599C49.988 52.6562 49.9068 52.7312 49.8424 52.8198C49.778 52.9084 49.7317 53.0089 49.7062 53.1153C49.6807 53.2218 49.6764 53.3323 49.6936 53.4405C49.7107 53.5486 49.7491 53.6523 49.8064 53.7457C50.5722 54.994 51.223 56.2332 51.6564 57.359C51.7357 57.5653 51.8938 57.7317 52.0958 57.8215C52.2978 57.9112 52.5271 57.9171 52.7335 57.8378C52.9398 57.7584 53.1061 57.6004 53.1959 57.3984C53.2857 57.1964 53.2916 56.967 53.2122 56.7607C52.7305 55.5073 52.0239 54.1732 51.2272 52.874C51.1117 52.6856 50.9261 52.5508 50.7112 52.4992C50.4964 52.4477 50.2698 52.4836 50.0814 52.599ZM58.7597 51.804C58.938 51.9345 59.0572 52.1304 59.0911 52.3487C59.125 52.567 59.0709 52.7898 58.9405 52.9682C57.9764 54.2873 57.1272 56.0515 56.5297 57.3982C56.4853 57.4982 56.4216 57.5885 56.3423 57.6639C56.2629 57.7393 56.1695 57.7984 56.0674 57.8377C55.9652 57.877 55.8564 57.8958 55.7469 57.893C55.6375 57.8902 55.5297 57.8659 55.4297 57.8215C55.3297 57.7771 55.2394 57.7134 55.164 57.6341C55.0886 57.5547 55.0295 57.4613 54.9902 57.3592C54.9509 57.257 54.9321 57.1482 54.9349 57.0387C54.9377 56.9293 54.9619 56.8215 55.0064 56.7215C55.6097 55.3632 56.518 53.4582 57.5955 51.9848C57.726 51.8065 57.9219 51.6873 58.1402 51.6534C58.3585 51.6195 58.5813 51.6737 58.7597 51.804Z" fill="white"/>
<path fill-rule="evenodd" clip-rule="evenodd" d="M56.8013 44.5904C58.753 42.3587 69.1888 39.5596 69.1888 39.5596C69.1888 39.5596 67.4147 50.7221 65.8538 52.5071C64.6913 53.8371 60.9872 53.0062 59.1721 52.4954C60.5288 50.4146 62.1013 48.3821 63.4838 46.7687C63.6249 46.6006 63.6939 46.3837 63.676 46.165C63.658 45.9462 63.5545 45.7434 63.388 45.6006C63.2214 45.4577 63.0052 45.3863 62.7863 45.4019C62.5674 45.4174 62.3635 45.5187 62.2188 45.6837C60.8247 47.3104 59.2088 49.3921 57.7938 51.5562C56.9988 50.0762 55.258 46.3554 56.8013 44.5904ZM43.268 59.5596H39.1013V69.5596H43.268V67.8571C44.118 67.8221 45.373 67.7771 45.8072 67.7946C47.2963 67.8554 48.4072 68.2104 49.5322 68.5696C50.5805 68.9037 51.6397 69.2421 53.0255 69.3479C53.3738 69.3746 53.713 69.4087 54.0422 69.4412C55.228 69.5612 56.2805 69.6679 57.1505 69.3479C58.2605 68.9396 64.6055 65.8337 65.3988 65.0162C66.1922 64.1996 65.7955 61.9929 63.3363 62.4012C62.123 62.6029 60.7172 63.1829 59.4413 63.7087C58.1322 64.2479 56.9605 64.7312 56.2772 64.6896C54.9288 64.6079 51.3605 63.9546 51.3605 63.9546L55.458 64.0046C55.458 64.0046 56.0372 64.0346 56.833 63.4637C57.6288 62.8929 58.3397 61.2571 57.1497 61.2571C55.9597 61.2571 54.6913 60.8487 54.6913 60.8487L49.6147 59.7046C49.6147 59.7046 47.8697 59.3779 47.1563 59.7046C46.568 59.9737 44.1163 60.8521 43.268 61.1546V59.5596ZM41.4997 42.6179C41.4997 42.6179 50.1122 44.9279 51.7222 46.7687C52.9663 48.1912 51.6255 51.1537 50.9505 52.4287C50.0658 51.0395 49.1106 49.6963 48.0888 48.4046C48.021 48.3187 47.937 48.247 47.8415 48.1935C47.746 48.1401 47.6409 48.106 47.5322 48.0932C47.4235 48.0804 47.3133 48.0891 47.208 48.1189C47.1027 48.1486 47.0043 48.1989 46.9184 48.2667C46.8325 48.3344 46.7608 48.4185 46.7074 48.514C46.6539 48.6095 46.6198 48.7146 46.607 48.8233C46.5942 48.932 46.603 49.0421 46.6327 49.1474C46.6625 49.2527 46.7127 49.3512 46.7805 49.4371C47.7736 50.6927 48.7015 51.9986 49.5605 53.3496C48.0038 53.7712 45.1688 54.3521 44.2522 53.3029C42.9638 51.8296 41.4997 42.6171 41.4997 42.6171" fill="white"/>
</svg>
