<svg width="110" height="111" viewBox="0 0 110 111" fill="none" xmlns="http://www.w3.org/2000/svg">
<path d="M63.9097 55.5757L49.4784 47.3293V63.8221L63.9097 55.5757Z" fill="#006969"/>
<path fill-rule="evenodd" clip-rule="evenodd" d="M0 55.5757C0 25.2132 24.6136 0.599609 54.9761 0.599609C85.3385 0.599609 109.952 25.2132 109.952 55.5757C109.952 85.9381 85.3385 110.552 54.9761 110.552C24.6136 110.552 0 85.9381 0 55.5757ZM76.2793 37.3649C78.6845 38.0521 80.4025 39.7701 81.0897 42.1753C82.4641 46.6421 82.4641 55.5757 82.4641 55.5757C82.4641 55.5757 82.4641 64.5093 81.4333 68.9761C80.7461 71.3813 79.0281 73.0993 76.6229 73.7865C72.1561 74.8173 54.9761 74.8173 54.9761 74.8173C54.9761 74.8173 37.4524 74.8173 33.3292 73.7865C30.924 73.0993 29.206 71.3813 28.5188 68.9761C27.488 64.5093 27.488 55.5757 27.488 55.5757C27.488 55.5757 27.488 46.6421 28.1752 42.1753C28.8624 39.7701 30.5805 38.0521 32.9857 37.3649C37.4525 36.3341 54.6325 36.3341 54.6325 36.3341C54.6325 36.3341 72.1561 36.3341 76.2793 37.3649Z" fill="#006969"/>
</svg>
